<svg width="24" height="24" viewBox="0 0 24 24" fill="none" xmlns="http://www.w3.org/2000/svg">
<path d="M19.14 12.936C19.176 12.636 19.2 12.324 19.2 12C19.2 11.676 19.176 11.364 19.128 11.064L21.156 9.48C21.243 9.40711 21.3024 9.3066 21.3242 9.19522C21.3461 9.08384 21.329 8.96834 21.276 8.868L19.356 5.544C19.236 5.328 18.984 5.256 18.768 5.328L16.38 6.288C15.8841 5.90521 15.3393 5.59043 14.76 5.352L14.4 2.808C14.3826 2.69354 14.3245 2.58921 14.2363 2.51424C14.1481 2.43926 14.0358 2.39869 13.92 2.4H10.08C9.96554 2.39884 9.85465 2.43975 9.76837 2.51496C9.6821 2.59018 9.62645 2.69446 9.61199 2.808L9.25199 5.352C8.67368 5.59241 8.1291 5.90705 7.63199 6.288L5.24399 5.328C5.13646 5.28654 5.01752 5.2856 4.90934 5.32534C4.80116 5.36508 4.71112 5.44279 4.65599 5.544L2.73599 8.868C2.67661 8.96675 2.65601 9.08403 2.67818 9.1971C2.70035 9.31017 2.76372 9.41099 2.85599 9.48L4.88399 11.064C4.83599 11.364 4.79999 11.688 4.79999 12C4.79999 12.312 4.82399 12.636 4.87199 12.936L2.84399 14.52C2.75699 14.5929 2.69761 14.6934 2.67577 14.8048C2.65393 14.9162 2.67095 15.0317 2.72399 15.132L4.64399 18.456C4.76399 18.672 5.01599 18.744 5.23199 18.672L7.61999 17.712C8.11588 18.0948 8.6607 18.4096 9.23999 18.648L9.59999 21.192C9.64799 21.432 9.83999 21.6 10.08 21.6H13.92C14.16 21.6 14.364 21.432 14.388 21.192L14.748 18.648C15.3263 18.4076 15.8709 18.093 16.368 17.712L18.756 18.672C18.972 18.756 19.224 18.672 19.344 18.456L21.264 15.132C21.3234 15.0333 21.344 14.916 21.3218 14.8029C21.2996 14.6898 21.2363 14.589 21.144 14.52L19.14 12.936ZM12 15.6C10.02 15.6 8.39999 13.98 8.39999 12C8.39999 10.02 10.02 8.4 12 8.4C13.98 8.4 15.6 10.02 15.6 12C15.6 13.98 13.98 15.6 12 15.6Z" fill="#003E52" fill-opacity="0.6"/>
</svg>
